<svg width="27" height="27" viewBox="0 0 27 27" fill="none" xmlns="http://www.w3.org/2000/svg">
<path d="M13.3318 0.952637C15.0997 0.952637 16.7951 1.63072 18.0452 2.8377C19.2953 4.04469 19.9976 5.68172 19.9976 7.38866C19.9976 9.09559 19.2953 10.7326 18.0452 11.9396C16.7951 13.1466 15.0997 13.8247 13.3318 13.8247C11.5639 13.8247 9.86836 13.1466 8.61827 11.9396C7.36817 10.7326 6.66588 9.09559 6.66588 7.38866C6.66588 5.68172 7.36817 4.04469 8.61827 2.8377C9.86836 1.63072 11.5639 0.952637 13.3318 0.952637ZM13.3318 17.0427C20.6975 17.0427 26.6635 19.9228 26.6635 23.4787V26.6967H0V23.4787C0 19.9228 5.96596 17.0427 13.3318 17.0427Z" fill="white"/>
</svg>
