<svg width="46" height="23" viewBox="0 0 46 23" fill="none" xmlns="http://www.w3.org/2000/svg">
<path d="M12.5455 15.3333C10.2455 15.3333 8.36364 13.6083 8.36364 11.5C8.36364 9.39167 10.2455 7.66667 12.5455 7.66667C14.8455 7.66667 16.7273 9.39167 16.7273 11.5C16.7273 13.6083 14.8455 15.3333 12.5455 15.3333ZM24.2545 7.66667C22.5818 3.25833 17.9818 0 12.5455 0C5.64545 0 0 5.175 0 11.5C0 17.825 5.64545 23 12.5455 23C17.9818 23 22.5818 19.7417 24.2545 15.3333H31.3636V23H39.7273V15.3333H46V7.66667H24.2545Z" fill="white"/>
</svg>
