<svg width="24" height="29" viewBox="0 0 24 29" fill="none" xmlns="http://www.w3.org/2000/svg">
<path d="M11.9526 21.4534C12.7451 21.4534 13.5052 21.1709 14.0655 20.668C14.6259 20.165 14.9408 19.4829 14.9408 18.7717C14.9408 17.2834 13.5961 16.09 11.9526 16.09C11.1601 16.09 10.4001 16.3726 9.83967 16.8755C9.27928 17.3784 8.96446 18.0605 8.96446 18.7717C8.96446 19.4829 9.27928 20.165 9.83967 20.668C10.4001 21.1709 11.1601 21.4534 11.9526 21.4534ZM20.9171 9.38586C21.7096 9.38586 22.4696 9.66839 23.03 10.1713C23.5904 10.6742 23.9052 11.3563 23.9052 12.0675V25.4759C23.9052 26.1871 23.5904 26.8692 23.03 27.3721C22.4696 27.8751 21.7096 28.1576 20.9171 28.1576H2.98815C2.19564 28.1576 1.4356 27.8751 0.875209 27.3721C0.314822 26.8692 0 26.1871 0 25.4759V12.0675C0 10.5792 1.34467 9.38586 2.98815 9.38586H4.48223V6.70419C4.48223 4.92613 5.26928 3.22089 6.67025 1.96361C8.07122 0.706332 9.97134 0 11.9526 0C12.9336 0 13.9051 0.173409 14.8114 0.510326C15.7177 0.847243 16.5413 1.34107 17.235 1.96361C17.9287 2.58615 18.4789 3.32522 18.8543 4.13861C19.2298 4.95199 19.423 5.82378 19.423 6.70419V9.38586H20.9171ZM11.9526 2.68167C10.7638 2.68167 9.62377 3.10547 8.78319 3.85984C7.94261 4.61421 7.47038 5.63735 7.47038 6.70419V9.38586H16.4348V6.70419C16.4348 5.63735 15.9626 4.61421 15.122 3.85984C14.2814 3.10547 13.1414 2.68167 11.9526 2.68167Z" fill="white"/>
</svg>
