<svg width="47" height="46" viewBox="0 0 47 46" fill="none" xmlns="http://www.w3.org/2000/svg">
<path d="M23.4435 0.491455C10.5027 0.491455 0 10.5373 0 22.9152C0 35.2931 10.5027 45.3389 23.4435 45.3389C36.3844 45.3389 46.8871 35.2931 46.8871 22.9152C46.8871 10.5373 36.3844 0.491455 23.4435 0.491455ZM23.4435 7.21857C27.3352 7.21857 30.4766 10.2234 30.4766 13.9457C30.4766 17.668 27.3352 20.6728 23.4435 20.6728C19.5519 20.6728 16.4105 17.668 16.4105 13.9457C16.4105 10.2234 19.5519 7.21857 23.4435 7.21857ZM23.4435 39.0603C17.5827 39.0603 12.4016 36.19 9.37742 31.8398C9.44775 27.3775 18.7548 24.9333 23.4435 24.9333C28.1088 24.9333 37.4393 27.3775 37.5097 31.8398C34.4855 36.19 29.3044 39.0603 23.4435 39.0603Z" fill="white"/>
</svg>
